<svg xmlns="http://www.w3.org/2000/svg" viewBox="0 0 128 128">
  <defs>
    <linearGradient id="bg" x1="0" y1="0" x2="1" y2="1">
      <stop offset="0%" stop-color="#23340d"/>
      <stop offset="100%" stop-color="#98c91c"/>
    </linearGradient>
  </defs>
  <rect width="128" height="128" rx="64" fill="url(#bg)"/>
  <circle cx="64" cy="48" r="25" fill="#f2c6a2"/>
  <path d="M39 44c4-20 46-27 53 3-5-8-14-13-24-13-10 0-20 4-29 10z" fill="#1b1a18"/>
  <path d="M27 116c4-24 22-38 37-38 16 0 34 14 38 38" fill="#0f1720"/>
  <path d="M39 95c8 7 16 10 25 10 10 0 18-3 26-10l12 21H27z" fill="#e5b400"/>
</svg>
