<svg xmlns="http://www.w3.org/2000/svg" viewBox="0 0 128 128">
  <defs>
    <linearGradient id="bg" x1="0" y1="0" x2="1" y2="1">
      <stop offset="0%" stop-color="#b9e827"/>
      <stop offset="100%" stop-color="#6ea700"/>
    </linearGradient>
  </defs>
  <rect width="128" height="128" rx="64" fill="url(#bg)"/>
  <circle cx="64" cy="46" r="24" fill="#f1cbab"/>
  <path d="M35 46c7-21 19-28 30-28 14 0 24 8 28 23-7-4-16-7-27-7-12 0-22 4-31 12z" fill="#352822"/>
  <path d="M27 116c6-21 21-35 37-35 17 0 32 14 37 35" fill="#17211d"/>
  <path d="M39 92c8 8 16 11 25 11 11 0 19-3 26-11l11 24H27z" fill="#f59f00"/>
</svg>
