<svg xmlns="http://www.w3.org/2000/svg" viewBox="0 0 128 128">
  <defs>
    <linearGradient id="bg" x1="0" y1="0" x2="1" y2="1">
      <stop offset="0%" stop-color="#0d2242"/>
      <stop offset="100%" stop-color="#4ea6ff"/>
    </linearGradient>
  </defs>
  <rect width="128" height="128" rx="64" fill="url(#bg)"/>
  <circle cx="64" cy="46" r="23" fill="#f0c9a6"/>
  <path d="M36 42c7-16 42-22 56 2-12-7-20-9-29-9-10 0-18 2-27 7z" fill="#171717"/>
  <path d="M28 116c5-22 23-36 36-36 14 0 32 14 36 36" fill="#123a52"/>
  <path d="M39 92c8 6 15 11 25 11 11 0 19-5 26-11l10 24H28z" fill="#87d0ff"/>
</svg>
